<svg width="23" height="24" viewBox="0 0 23 24" fill="none" xmlns="http://www.w3.org/2000/svg">
<path d="M4.52333 2.66667C4.6 3.85333 4.79167 5.01333 5.09833 6.12L3.565 7.72C3.04111 6.12 2.70889 4.42667 2.59389 2.66667H4.52333ZM17.1222 18.6933C18.2083 19.0133 19.32 19.2133 20.4444 19.2933V21.28C18.7578 21.16 17.135 20.8133 15.5889 20.28L17.1222 18.6933ZM5.75 0H1.27778C0.575 0 0 0.6 0 1.33333C0 13.8533 9.72389 24 21.7222 24C22.425 24 23 23.4 23 22.6667V18.0133C23 17.28 22.425 16.68 21.7222 16.68C20.1378 16.68 18.5917 16.4133 17.1606 15.92C17.0328 15.8667 16.8922 15.8533 16.7644 15.8533C16.4322 15.8533 16.1128 15.9867 15.8572 16.24L13.0461 19.1733C9.43 17.24 6.46556 14.16 4.62556 10.3867L7.43667 7.45333C7.79444 7.08 7.89667 6.56 7.75611 6.09333C7.28333 4.6 7.02778 3 7.02778 1.33333C7.02778 0.6 6.45278 0 5.75 0Z" fill="white"/>
</svg>
