<svg width="26" height="26" viewBox="0 0 26 26" fill="none" xmlns="http://www.w3.org/2000/svg">
<path d="M22.1336 3.77942C19.7049 1.33773 16.4709 0 13.0292 0C5.9379 0 0.158376 5.77952 0.158376 12.8708C0.158376 15.1437 0.75581 17.3516 1.87275 19.2997L0.0544739 25.9754L6.87301 24.1831C8.75623 25.2091 10.8732 25.7546 13.0292 25.7546C20.1205 25.7546 25.9 19.9751 25.9 12.8838C25.9 9.44206 24.5623 6.20812 22.1336 3.77942ZM13.0292 23.5727C11.107 23.5727 9.22379 23.0532 7.57435 22.0791L7.18472 21.8453L3.13256 22.9103L4.21054 18.962L3.95078 18.5594C2.88579 16.858 2.31433 14.8839 2.31433 12.8708C2.31433 6.97439 7.11978 2.16895 13.0162 2.16895C15.8735 2.16895 18.5619 3.28589 20.575 5.31197C22.6011 7.33805 23.7051 10.0265 23.7051 12.8838C23.731 18.7802 18.9256 23.5727 13.0292 23.5727ZM18.8996 15.5722C18.5749 15.4164 16.9904 14.6371 16.7047 14.5202C16.406 14.4163 16.1982 14.3644 15.9774 14.6761C15.7566 15.0008 15.1462 15.7281 14.9643 15.9359C14.7825 16.1567 14.5877 16.1827 14.263 16.0138C13.9383 15.858 12.8993 15.5073 11.6785 14.4163C10.7174 13.5592 10.081 12.5072 9.88616 12.1825C9.70433 11.8578 9.86018 11.6889 10.029 11.5201C10.1719 11.3772 10.3537 11.1434 10.5096 10.9616C10.6654 10.7798 10.7304 10.6369 10.8343 10.4291C10.9382 10.2083 10.8862 10.0265 10.8083 9.87065C10.7304 9.7148 10.081 8.1303 9.82122 7.48091C9.56147 6.8575 9.28873 6.93543 9.09391 6.92244C8.8991 6.92244 8.69129 6.92244 8.4705 6.92244C8.24971 6.92244 7.91203 7.00037 7.61331 7.32506C7.32758 7.64975 6.49637 8.42902 6.49637 10.0135C6.49637 11.598 7.65228 13.1306 7.80813 13.3384C7.96398 13.5592 10.081 16.8061 13.3019 18.1958C14.0682 18.5334 14.6656 18.7283 15.1332 18.8711C15.8995 19.1179 16.6008 19.0789 17.1593 19.001C17.7827 18.9101 19.0685 18.2217 19.3282 17.4685C19.601 16.7152 19.601 16.0788 19.51 15.9359C19.4191 15.793 19.2243 15.7281 18.8996 15.5722Z" fill="white"/>
</svg>
